<?xml version="1.0" encoding="iso-8859-1"?>
<!-- Generator: Adobe Illustrator 18.1.1, SVG Export Plug-In . SVG Version: 6.00 Build 0)  -->
<svg version="1.1" id="Capa_1" xmlns="http://www.w3.org/2000/svg" xmlns:xlink="http://www.w3.org/1999/xlink" x="0px" y="0px"
	 viewBox="0 0 300.095 300.095" style="enable-background:new 0 0 300.095 300.095;" xml:space="preserve">
<g>
	<g>
		<g>
			<path style="fill:#010002;" d="M23.491,144.032c0-28.762,23.399-52.155,52.161-52.155h185.706l-46.874,46.874l14.31,14.305
				l71.301-71.295L228.8,10.47L214.5,24.78l46.863,46.868H75.657c-39.912,0-72.389,32.477-72.389,72.389v7.419h20.228v-7.424H23.491
				z"/>
		</g>
		<g>
			<path style="fill:#010002;" d="M276.604,156.058c0,28.762-23.404,52.155-52.166,52.155H38.726l46.879-46.874L71.29,147.04
				L0,218.335l71.295,71.29l14.299-14.31l-46.874-46.868h185.711c39.917,0,72.394-32.471,72.394-72.388v-7.419h-20.228v7.419
				H276.604z"/>
		</g>
	</g>
</g>
<g>
</g>
<g>
</g>
<g>
</g>
<g>
</g>
<g>
</g>
<g>
</g>
<g>
</g>
<g>
</g>
<g>
</g>
<g>
</g>
<g>
</g>
<g>
</g>
<g>
</g>
<g>
</g>
<g>
</g>
</svg>
