<?xml version="1.0" encoding="iso-8859-1"?>
<!-- Generator: Adobe Illustrator 18.1.1, SVG Export Plug-In . SVG Version: 6.00 Build 0)  -->
<svg version="1.1" id="Capa_1" xmlns="http://www.w3.org/2000/svg" xmlns:xlink="http://www.w3.org/1999/xlink" x="0px" y="0px"
	 viewBox="0 0 27.494 27.494" style="enable-background:new 0 0 27.494 27.494;" xml:space="preserve">
<g>
	<g id="c137_pause">
		<path style="fill:#030104;" d="M13.747,0C6.155,0,0,6.154,0,13.747c0,7.594,6.155,13.747,13.747,13.747
			c7.593,0,13.747-6.153,13.747-13.747C27.494,6.154,21.34,0,13.747,0z M11.937,20.483c0,0.177-0.144,0.322-0.318,0.322h-2.68
			c-0.177,0-0.317-0.146-0.317-0.322V7.007c0-0.172,0.141-0.317,0.317-0.317h2.68c0.175,0,0.318,0.146,0.318,0.317V20.483z
			 M18.875,20.483c0,0.177-0.145,0.322-0.318,0.322h-2.681c-0.174,0-0.319-0.146-0.319-0.322V7.007c0-0.172,0.146-0.317,0.319-0.317
			h2.681c0.174,0,0.318,0.146,0.318,0.317V20.483z"/>
	</g>
</g>
<g>
</g>
<g>
</g>
<g>
</g>
<g>
</g>
<g>
</g>
<g>
</g>
<g>
</g>
<g>
</g>
<g>
</g>
<g>
</g>
<g>
</g>
<g>
</g>
<g>
</g>
<g>
</g>
<g>
</g>
</svg>
